<svg height="511pt" viewBox="0 -48 511.998 511" width="511pt" xmlns="http://www.w3.org/2000/svg"><path d="m276.207031 236.460938c-4.621093-1.472657-9.625-.011719-12.957031 3.511718-25.539062 26.984375-68.398438 26.949219-93.90625 0-3.332031-3.523437-8.335938-4.984375-12.957031-3.511718-20.621094 6.574218-43.769531 2.488281-61.101563-12.039063 19.734375 38.074219 46.328125 101.320313 53.898438 176.664063.792968 7.914062 7.410156 13.964843 15.367187 13.964843h103.492188c7.957031 0 14.574219-6.050781 15.367187-13.964843 7.570313-75.34375 34.164063-138.589844 53.898438-176.664063-17.316406 14.511719-40.457032 18.621094-61.101563 12.039063zm0 0" fill="#eaf467"/><path d="m276.207031 236.460938c-4.621093-1.472657-9.625-.011719-12.957031 3.511718-25.539062 26.984375-68.398438 26.949219-93.90625 0-3.332031-3.523437-8.335938-4.984375-12.957031-3.511718-1.972657.628906-3.988281 1.15625-6.035157 1.59375 24.800782 54.476562 32.53125 136.5 34.578126 165.964843.433593 6.214844 5.605468 11.03125 11.835937 11.03125.378906 0 39.390625 0 39.0625 0 6.226563 0 11.402344-4.816406 11.832031-11.03125 2.050782-29.464843 9.78125-111.488281 34.582032-165.964843-2.046876-.4375-4.0625-.964844-6.035157-1.59375zm0 0" fill="#c8d952"/><path d="m213.289062 404.019531c-1.882812-27.085937-8.566406-98.566406-28.890624-152.25-5.433594-3.085937-10.523438-7.007812-15.054688-11.796875-3.332031-3.523437-8.335938-4.984375-12.957031-3.511718-1.972657.628906-3.988281 1.15625-6.035157 1.59375 24.800782 54.476562 32.527344 136.5 34.578126 165.964843.433593 6.214844 5.605468 11.03125 11.835937 11.03125h28.359375c-6.230469 0-11.402344-4.816406-11.835938-11.03125zm0 0" fill="#abcd49"/><path d="m367.929688 77.734375c-.03125 0-.0625 0-.09375 0-5.183594.007813-9.945313-3.023437-11.84375-7.878906-10.089844-25.824219-35.632813-42.757813-63.609376-41.183594-3.28125.183594-6.476562-.980469-8.96875-3.140625-18.03125-15.601562-41.480468-25.03125-67.117187-25.03125-25.640625 0-49.089844 9.429688-67.117187 25.03125-2.496094 2.160156-5.6875 3.324219-8.972657 3.140625-1.136719-.066406-2.277343-.097656-3.429687-.097656-27.359375 0-50.734375 17.113281-60.179688 41.28125-1.898437 4.855469-6.65625 7.886719-11.839844 7.878906-.03125 0-.0625 0-.09375 0-35.714843 0-64.664062 29.152344-64.664062 65.113281 0 38.8125 33.515625 68.953125 71.691406 64.722656 4.65625-.515624 9.195313 1.546876 11.859375 5.425782 16.351563 23.847656 45.988281 33.710937 72.835938 25.09375 4.621093-1.480469 9.625-.011719 12.957031 3.535156 25.542969 27.171875 68.402344 27.136719 93.90625 0 3.332031-3.546875 8.335938-5.015625 12.957031-3.535156 26.800781 8.601562 56.453125-1.199219 72.839844-25.09375 2.660156-3.878906 7.199219-5.941406 11.855469-5.425782 38.210937 4.234376 71.691406-25.941406 71.691406-64.722656 0-35.960937-28.949219-65.113281-64.664062-65.113281zm0 0" fill="#8ec13f"/><path d="m119.605469 212.996094c-2.660157-3.878906-7.199219-5.941406-11.855469-5.425782-38.175781 4.230469-71.691406-25.910156-71.691406-64.722656 0-35.960937 28.949218-65.113281 64.664062-65.113281h.09375c5.183594.007813 9.941406-3.019531 11.839844-7.878906 9.445312-24.171875 32.820312-41.28125 60.179688-41.28125 1.152343 0 2.296874.03125 3.429687.097656 3.285156.183594 6.476563-.980469 8.972656-3.140625 13.703125-11.855469 30.542969-20.136719 49.085938-23.433594-5.851563-1.042968-11.875-1.597656-18.027344-1.597656-25.636719 0-49.085937 9.429688-67.117187 25.03125-2.492188 2.160156-5.6875 3.324219-8.96875 3.140625-1.136719-.0625-2.28125-.097656-3.433594-.097656-27.355469 0-50.734375 17.113281-60.179688 41.285156-1.894531 4.855469-6.65625 7.886719-11.839844 7.878906-.03125 0-.0625 0-.09375 0-35.714843-.003906-64.664062 29.148438-64.664062 65.109375 0 38.8125 33.515625 68.953125 71.691406 64.722656 4.65625-.515624 9.195313 1.546876 11.859375 5.425782 16.03125 23.375 44.820313 33.304687 71.242188 25.570312-13.890625-4.066406-26.4375-12.816406-35.1875-25.570312zm0 0" fill="#7cad27"/><path d="m385.695312 270.8125c-3.734374-1.1875-7.773437-.007812-10.464843 2.835938-20.628907 21.792968-55.242188 21.765624-75.84375 0-2.691407-2.84375-6.730469-4.023438-10.464844-2.835938-16.65625 5.308594-35.347656 2.011719-49.347656-9.722656 15.9375 30.75 37.414062 81.832031 43.53125 142.679687.640625 6.394531 5.984375 11.28125 12.410156 11.28125h83.585937c6.425782 0 11.769532-4.886719 12.410157-11.28125 6.117187-60.847656 27.59375-111.929687 43.53125-142.679687-13.984375 11.722656-32.675781 15.039062-49.347657 9.722656zm0 0" fill="#eaf467"/><path d="m304.222656 403.769531c-5.386718-53.640625-22.714844-99.679687-37.664062-130.90625-9.683594-1.21875-19.082032-5.148437-26.984375-11.773437 15.9375 30.75 37.417969 81.832031 43.53125 142.679687.640625 6.394531 5.988281 11.28125 12.410156 11.28125h21.121094c-6.425781 0-11.769531-4.886719-12.414063-11.28125zm0 0" fill="#c8d952"/><path d="m385.695312 270.8125c-3.734374-1.1875-7.773437-.007812-10.464843 2.835938-20.628907 21.792968-55.242188 21.765624-75.84375 0-2.691407-2.84375-6.730469-4.023438-10.464844-2.835938-1.589844.507812-3.21875.933594-4.871094 1.289062 20.027344 43.996094 26.269531 110.242188 27.925781 134.042969.347657 5.015625 4.527344 8.90625 9.558594 8.90625.308594 0 31.816406 0 31.550782 0 5.027343 0 9.207031-3.890625 9.554687-8.90625 1.65625-23.800781 7.898437-90.046875 27.929687-134.042969-1.65625-.355468-3.285156-.78125-4.875-1.289062zm0 0" fill="#c8d952"/><path d="m334.878906 406.140625c-1.519531-21.875-6.917968-79.605469-23.332031-122.960937-4.390625-2.496094-8.5-5.664063-12.160156-9.53125-2.691407-2.84375-6.730469-4.023438-10.464844-2.835938-1.589844.507812-3.21875.933594-4.871094 1.289062 20.027344 43.996094 26.269531 110.242188 27.925781 134.039063.347657 5.019531 4.527344 8.910156 9.558594 8.910156h22.902344c-5.03125 0-9.207031-3.890625-9.558594-8.910156zm0 0" fill="#abcd49"/><path d="m459.773438 142.617188c-.027344 0-.050782 0-.074219 0-4.1875.007812-8.03125-2.441407-9.5625-6.363282-8.148438-20.855468-28.78125-34.53125-51.375-33.261718-2.652344.148437-5.230469-.792969-7.246094-2.535157-14.5625-12.601562-33.5-20.21875-54.207031-20.21875-20.707032 0-39.644532 7.617188-54.207032 20.21875-2.015624 1.742188-4.59375 2.683594-7.246093 2.535157-.917969-.050782-1.839844-.078126-2.769531-.078126-22.097657 0-40.976563 13.820313-48.605469 33.339844-1.53125 3.921875-5.375 6.371094-9.5625 6.363282-.023438 0-.050781 0-.074219 0-28.84375 0-52.226562 23.546874-52.226562 52.589843 0 31.347657 27.066406 55.6875 57.902343 52.273438 3.757813-.417969 7.425781 1.246093 9.574219 4.378906 13.210938 19.261719 37.144531 27.230469 58.828125 20.269531 3.730469-1.195312 7.773437-.007812 10.464844 2.855469 20.628906 21.945313 55.242187 21.914063 75.84375 0 2.691406-2.863281 6.730469-4.050781 10.460937-2.855469 21.648438 6.949219 45.59375-.96875 58.828125-20.269531 2.152344-3.132813 5.820313-4.796875 9.578125-4.378906 30.859375 3.417969 57.898438-20.953125 57.898438-52.273438.003906-29.042969-23.378906-52.589843-52.222656-52.589843zm0 0" fill="#7cad27"/><g fill="#75a022"><path d="m413.472656 273.207031c1.761719-.417969 3.507813-.925781 5.21875-1.523437-1.835937.015625-3.640625.546875-5.21875 1.523437zm0 0"/><path d="m335.445312 274.984375c-2.691406-2.863281-6.730468-4.050781-10.464843-2.855469-9.183594 2.949219-18.773438 3.210938-27.78125 1.074219.792969.492187 1.53125 1.085937 2.1875 1.78125 14.875 15.828125 37.027343 20.21875 55.949219 13.21875-7.3125-2.703125-14.144532-7.105469-19.890626-13.21875zm0 0"/><path d="m266.152344 251.859375c-2.148438-3.128906-5.816406-4.796875-9.574219-4.378906-30.835937 3.414062-57.902344-20.925781-57.902344-52.273438 0-29.042969 23.382813-52.589843 52.226563-52.589843h.074218c4.1875.007812 8.03125-2.441407 9.5625-6.363282 7.628907-19.519531 26.507813-33.339844 48.605469-33.339844.929688 0 1.851563.027344 2.769531.078126 2.652344.148437 5.230469-.792969 7.246094-2.535157 10.203125-8.832031 22.566406-15.203125 36.175782-18.230469-5.804688-1.292968-11.835938-1.988281-18.027344-1.988281-20.707032 0-39.648438 7.617188-54.207032 20.21875-2.015624 1.742188-4.59375 2.683594-7.246093 2.535157-.917969-.050782-1.839844-.078126-2.769531-.078126-22.097657 0-40.976563 13.820313-48.605469 33.339844-1.53125 3.921875-5.375 6.371094-9.558594 6.363282-.027344 0-.050781 0-.078125 0-28.84375 0-52.226562 23.546874-52.226562 52.589843 0 31.347657 27.070312 55.6875 57.902343 52.273438 3.757813-.417969 7.425781 1.246093 9.574219 4.378906 13.210938 19.261719 37.144531 27.230469 58.828125 20.269531 1.011719-.324218 2.042969-.457031 3.066406-.445312-10.183593-3.570313-19.316406-10.320313-25.835937-19.824219zm0 0"/></g></svg>