<?xml version="1.0" encoding="iso-8859-1"?>
<!-- Generator: Adobe Illustrator 19.0.0, SVG Export Plug-In . SVG Version: 6.00 Build 0)  -->
<svg version="1.1" id="Capa_1" xmlns="http://www.w3.org/2000/svg" xmlns:xlink="http://www.w3.org/1999/xlink" x="0px" y="0px"
	 viewBox="0 0 512 512" style="enable-background:new 0 0 512 512;" xml:space="preserve">
<path style="fill:#FFE475;" d="M339.029,325.921c16.249-2.4,34.053-9.667,53.106-21.714c11.803-7.462,18.85-20.252,18.85-34.213
	c0-4.673-0.806-9.208-2.299-13.464c16.164-2.449,33.859-9.695,52.787-21.663c11.803-7.462,18.85-20.252,18.85-34.214
	c-0.001-13.961-7.045-26.75-18.851-34.213c-8.658-5.474-17.055-9.952-25.169-13.447c5.224-3.308,10.092-7.067,14.375-11.348
	c13.619-13.619,23.653-34.412,29.824-61.799c3.069-13.623-0.992-27.65-10.863-37.522c-9.873-9.873-23.898-13.932-37.522-10.863
	c-27.388,6.17-48.18,16.204-61.799,29.824c-4.277,4.277-8.032,9.14-11.337,14.357c-3.492-8.098-7.961-16.477-13.423-25.117
	c-7.463-11.806-20.252-18.851-34.213-18.851c-13.962,0-26.751,7.047-34.214,18.85c-11.968,18.928-19.214,36.623-21.663,52.786
	c-4.255-1.493-8.79-2.298-13.464-2.298c-13.961,0-26.75,7.047-34.213,18.85c-12.047,19.053-19.313,36.858-21.714,53.107
	c-4.311-1.538-8.914-2.37-13.658-2.371c-13.962,0-26.752,7.047-34.214,18.85c-15.003,23.729-22.609,45.526-22.61,64.787
	c0,32.933,23.039,67.226,36.443,84.391L39.298,451.373c-5.881,5.881-5.881,15.415,0,21.296c5.881,5.881,15.415,5.881,21.296,0
	l112.738-112.738c17.153,13.4,51.472,36.473,84.429,36.473c19.261,0,41.058-7.607,64.787-22.609
	c11.803-7.462,18.85-20.252,18.85-34.214C341.399,334.834,340.567,330.232,339.029,325.921z"/>
<path style="fill:#FFB726;" d="M480.324,200.655c-0.001-13.961-7.045-26.75-18.851-34.213c-8.658-5.474-17.055-9.952-25.169-13.447
	c5.224-3.308,10.092-7.067,14.375-11.348c13.619-13.619,23.653-34.412,29.824-61.799c3.067-13.613-0.987-27.63-10.844-37.5
	L39.319,472.688c5.882,5.861,15.401,5.855,21.275-0.019l112.738-112.738c17.153,13.4,51.472,36.473,84.429,36.473
	c19.261,0,41.058-7.607,64.787-22.609c11.803-7.462,18.85-20.252,18.85-34.214c0-4.746-0.832-9.348-2.37-13.659
	c16.249-2.4,34.053-9.667,53.106-21.714c11.803-7.462,18.85-20.252,18.85-34.213c0-4.673-0.806-9.208-2.299-13.464
	c16.164-2.449,33.859-9.695,52.787-21.663C473.276,227.407,480.323,214.617,480.324,200.655z"/>
<path style="fill:#FF5619;" d="M486.293,507.589L4.411,25.707c-5.881-5.881-5.881-15.415,0-21.296s15.415-5.881,21.296,0
	l481.882,481.882c5.881,5.881,5.881,15.415,0,21.296C501.709,513.47,492.174,513.47,486.293,507.589z"/>
<path style="fill:#B53312;" d="M507.589,486.293L266.651,245.355l-21.296,21.296l240.938,240.938c5.881,5.881,15.415,5.881,21.296,0
	C513.47,501.709,513.47,492.174,507.589,486.293z"/>
<g>
</g>
<g>
</g>
<g>
</g>
<g>
</g>
<g>
</g>
<g>
</g>
<g>
</g>
<g>
</g>
<g>
</g>
<g>
</g>
<g>
</g>
<g>
</g>
<g>
</g>
<g>
</g>
<g>
</g>
</svg>
